#!OML:ASF F:\VICON\USERDATA\INSTALL\rory3\rory3.ASF
:FULLY-SPECIFIED
:DEGREES
110
root 0.996444 18.0867 -12.2442 -2.99679 -2.31815 -2.1708
lowerback 11.0407 1.53721 1.12081
upperback -0.131503 2.23916 0.763427
thorax -6.32453 1.07431 -0.194586
lowerneck -18.0819 -3.16993 -1.29251
upperneck 15.8232 -4.27223 1.44876
head 7.92627 -1.96133 0.179959
rclavicle -1.47563e-014 1.22874e-014
rhumerus -31.2711 -19.2209 -78.5007
rradius 28.0007
rwrist 3.21886
rhand -14.7698 17.9065
rfingers 7.12502
rthumb 11.3868 -11.7644
lclavicle -1.47563e-014 1.22874e-014
lhumerus -36.2508 11.3264 78.4458
lradius 20.048
lwrist 5.17175
lhand -28.3069 20.4764
lfingers 7.12502
lthumb -1.68234 50.4495
rfemur -7.0155 1.86529 24.6973
rtibia 65.4348
rfoot 18.5736 -2.82076
rtoes 13.4784
lfemur -15.8328 -2.51505 -21.7742
ltibia 26.3461
lfoot -6.26871 -3.45409
ltoes 1.35604
111
root 1.00437 18.0978 -12.0733 -3.17497 -2.21829 -1.95608
lowerback 11.135 1.41326 0.743232
upperback -0.0651919 2.03162 0.854102
thorax -6.32579 0.986022 0.144972
lowerneck -17.894 -3.06481 -1.51637
upperneck 15.7457 -4.09633 1.58401
head 7.87352 -1.87985 0.285583
rclavicle -1.3039e-014 1.46604e-014
rhumerus -31.3797 -19.1933 -78.3001
rradius 27.0448
rwrist 4.20224
rhand -15.4092 17.0384
rfingers 7.12502
rthumb 10.77 -12.6655
lclavicle -1.3039e-014 1.46604e-014
lhumerus -36.1965 10.4799 79.0779
lradius 20.5575
lwrist 6.32519
lhand -25.3366 19.6776
lfingers 7.12502
lthumb 1.18649 49.6541
rfemur -8.44429 1.39252 24.3216
rtibia 67.3644
rfoot 17.9998 -4.57652
rtoes 14.0865
lfemur -15.1609 -2.45375 -22.1253
ltibia 26.6666
lfoot -7.13912 -3.31895
ltoes 1.34688
112
root 1.01493 18.0986 -11.9005 -3.35614 -2.10272 -1.95129
lowerback 11.2963 1.24198 0.63843
upperback -0.034048 1.79993 0.98083
thorax -6.3913 0.877437 0.371683
lowerneck -17.8129 -2.94062 -1.6367
upperneck 15.8349 -3.89493 1.5686
head 7.88813 -1.79321 0.324697
rclavicle 3.87692e-014 -5.26779e-015
rhumerus -31.4746 -19.0019 -78.2689
rradius 26.4898
rwrist 4.43082
rhand -15.534 15.1378
rfingers 7.12502
rthumb 10.6497 -14.5723
lclavicle 3.87692e-014 -5.26779e-015
lhumerus -36.1206 10.1676 79.361
lradius 20.9101
lwrist 6.83731
lhand -23.5066 18.5133
lfingers 7.12502
lthumb 2.95387 48.4726
rfemur -9.74863 0.866634 24.1635
rtibia 69.0814
rfoot 17.1102 -6.0195
rtoes 14.9475
lfemur -14.3758 -2.40091 -22.2524
ltibia 26.8782
lfoot -7.91202 -3.16125
ltoes 2.7349
113
root 1.02518 18.0811 -11.7285 -3.58006 -2.14653 -1.78135
lowerback 11.3973 1.26888 0.537638
upperback 0.138898 1.81631 0.909359
thorax -6.26586 0.887829 0.35045
lowerneck -18.0205 -2.96461 -1.56506
upperneck 15.8728 -3.94644 1.57925
head 7.93633 -1.8103 0.307303
rclavicle -5.96665e-015 1.88845e-015
rhumerus -31.3042 -19.5604 -78.1924
rradius 25.9111
rwrist 4.83179
rhand -15.3896 16.2437
rfingers 7.12502
rthumb 10.7889 -13.4592
lclavicle -5.96665e-015 1.88845e-015
lhumerus -35.5636 9.50283 79.6659
lradius 21.1397
lwrist 6.74942
lhand -23.4826 17.8263
lfingers 7.12502
lthumb 2.97708 47.7852
rfemur -10.9818 0.454848 23.8002
rtibia 70.679
rfoot 15.8814 -6.81831
rtoes 14.2733
lfemur -13.4761 -2.24538 -22.5437
ltibia 27.0157
lfoot -8.52224 -2.9575
ltoes 3.42545
114
root 1.03624 18.1148 -11.552 -3.86619 -2.1376 -1.71093
lowerback 11.6551 1.27908 0.561712
upperback 0.228267 1.82926 0.828254
thorax -6.3128 0.89172 0.244773
lowerneck -18.1121 -3.02286 -1.5146
upperneck 16.1501 -4.06738 1.69219
head 8.04848 -1.85027 0.318713
rclavicle 9.02374e-015 -2.78299e-015
rhumerus -31.4641 -20.511 -77.8723
rradius 25.2253
rwrist 6.02854
rhand -15.4329 17.3418
rfingers 7.12502
rthumb 10.7472 -12.3633
lclavicle 9.02374e-015 -2.78299e-015
lhumerus -35.2128 8.66689 79.9338
lradius 21.4766
lwrist 6.41477
lhand -24.0197 18.5609
lfingers 7.12502
lthumb 2.45831 48.5265
rfemur -11.9664 0.154609 23.5865
rtibia 71.8242
rfoot 14.8882 -7.48582
rtoes 14.647
lfemur -12.3798 -2.1518 -22.7193
ltibia 26.9459
lfoot -9.06265 -2.77856
ltoes 3.83769
115
root 1.04526 18.1348 -11.3777 -3.91091 -2.00044 -1.43021
lowerback 11.5958 1.14543 0.240437
upperback 0.230525 1.60791 0.825574
thorax -6.28526 0.79313 0.461548
lowerneck -17.9776 -2.89862 -1.57321
upperneck 16.2793 -3.87942 1.65673
head 8.06567 -1.76876 0.340401
rclavicle 3.18646e-014 5.1684e-015
rhumerus -31.721 -20.5858 -77.6906
rradius 24.9002
rwrist 6.6354
rhand -15.6811 16.5683
rfingers 7.12502
rthumb 10.5078 -13.149
lclavicle 3.18646e-014 5.1684e-015
lhumerus -35.0565 8.49032 80.0476
lradius 21.762
lwrist 6.05986
lhand -24.1016 19.4258
lfingers 7.12502
lthumb 2.37925 49.3923
rfemur -13.2962 -0.246771 23.1269
rtibia 72.8352
rfoot 13.9608 -7.53628
rtoes 14.7308
lfemur -11.5391 -2.17734 -23.1343
ltibia 26.6731
lfoot -9.52969 -2.5672
ltoes 3.427
116
root 1.06035 18.1431 -11.202 -3.80633 -2.1203 -1.30262
lowerback 11.2178 1.06198 0.110025
upperback 0.343928 1.48172 0.913278
thorax -5.95758 0.737012 0.65608
lowerneck -18.0234 -2.78546 -1.68604
upperneck 16.2204 -3.67676 1.58052
head 8.0511 -1.6877 0.357891
rclavicle -1.53157e-014 -1.40143e-014
rhumerus -31.7213 -20.52 -77.5865
rradius 24.655
rwrist 6.93792
rhand -15.6727 16.6823
rfingers 7.12502
rthumb 10.5159 -13.0347
lclavicle -1.53157e-014 -1.40143e-014
lhumerus -34.5538 8.46402 80.2558
lradius 21.8708
lwrist 5.929
lhand -23.9464 19.4074
lfingers 7.12502
lthumb 2.52913 49.3722
rfemur -14.7453 -0.281939 22.8539
rtibia 73.6524
rfoot 12.9545 -7.45977
rtoes 13.1644
lfemur -10.7765 -2.07061 -23.3854
ltibia 26.1189
lfoot -9.79307 -2.32235
ltoes 2.50051
